<svg width="247" height="28" viewBox="0 0 247 28" fill="none" xmlns="http://www.w3.org/2000/svg">
<path d="M0.16 21.132C0.16 19.764 0.484 17.352 1.132 13.896C1.78 10.44 2.176 8.256 2.32 7.344L0.412 3.492C3.46 1.764 6.052 0.899999 8.188 0.899999C9.244 0.899999 10.036 1.26 10.564 1.98C12.556 1.284 14.392 0.935999 16.072 0.935999C19.192 0.935999 21.616 1.956 23.344 3.996C25.072 6.012 25.936 8.532 25.936 11.556C25.936 15.54 24.472 19.2 21.544 22.536C20.128 24.144 18.256 25.44 15.928 26.424C13.624 27.408 11.152 27.9 8.512 27.9C5.872 27.9 3.82 27.324 2.356 26.172C0.892 24.996 0.16 23.316 0.16 21.132ZM7.792 22.5C8.296 22.596 8.86 22.644 9.484 22.644C12.1 22.644 14.14 21.708 15.604 19.836C17.068 17.94 17.8 15.612 17.8 12.852C17.8 10.62 17.296 8.844 16.288 7.524C15.28 6.204 13.828 5.544 11.932 5.544C11.644 5.544 11.164 5.592 10.492 5.688C10.324 6.912 9.88 9.648 9.16 13.896C8.464 18.12 8.008 20.988 7.792 22.5ZM48.8092 6.192L48.5212 14.76C48.5212 17.712 48.7612 20.196 49.2412 22.212C49.7452 24.228 50.6692 25.62 52.0132 26.388C50.3572 27.42 48.6772 27.936 46.9732 27.936C43.9732 27.936 42.1252 25.512 41.4292 20.664H34.0852C33.6292 22.224 33.4012 23.424 33.4012 24.264C33.4012 25.08 33.4972 25.74 33.6892 26.244C31.9132 27.372 30.3292 27.936 28.9372 27.936C26.8012 27.936 25.7332 26.64 25.7332 24.048C25.7332 22.752 26.1292 21.12 26.9212 19.152C27.7372 17.184 28.8052 14.928 30.1252 12.384C31.4692 9.84 32.3212 8.16 32.6812 7.344C32.4172 6.048 32.1172 4.776 31.7812 3.528C33.0292 2.664 34.2292 2.016 35.3812 1.584C36.5572 1.128 37.8172 0.899999 39.1612 0.899999C40.5292 0.899999 41.4772 1.2 42.0052 1.8C43.3732 1.2 44.5012 0.899999 45.3892 0.899999C46.2772 0.899999 46.9372 1.044 47.3692 1.332C47.8012 1.62 48.1132 2.04 48.3052 2.592C48.6412 3.552 48.8092 4.752 48.8092 6.192ZM41.5732 7.02H40.4212C38.2612 11.196 36.6532 14.484 35.5972 16.884H41.1772C41.1772 14.268 41.3092 10.98 41.5732 7.02ZM53.2558 15.948C53.2558 14.268 53.6158 12.564 54.3358 10.836C55.0558 9.084 56.0758 7.464 57.3958 5.976C58.7158 4.488 60.4318 3.276 62.5438 2.34C64.6798 1.38 66.8758 0.899999 69.1318 0.899999C71.4118 0.899999 73.1878 1.32 74.4598 2.16C75.7558 3 76.4038 4.164 76.4038 5.652C76.4038 7.14 75.9118 8.304 74.9278 9.144C73.9678 9.96 72.8638 10.368 71.6158 10.368C70.3678 10.368 69.2398 10.104 68.2318 9.576C67.2478 9.024 66.4558 8.244 65.8558 7.236C64.5598 7.86 63.4438 9.084 62.5078 10.908C61.5718 12.732 61.1038 14.568 61.1038 16.416C61.1038 18.24 61.4038 19.692 62.0038 20.772C62.6038 21.828 63.4558 22.356 64.5598 22.356C65.6638 22.356 66.6358 21.792 67.4758 20.664C68.3398 19.536 68.7718 18.18 68.7718 16.596C71.1958 16.596 72.9238 16.788 73.9558 17.172C75.0118 17.556 75.5398 18.384 75.5398 19.656C75.5398 21.648 74.4598 23.52 72.2998 25.272C70.1398 27.024 67.4278 27.9 64.1638 27.9C60.8998 27.9 58.2598 26.892 56.2438 24.876C54.2518 22.86 53.2558 19.884 53.2558 15.948ZM94.786 22.356C94.786 21.348 94.954 19.692 95.29 17.388H87.154C86.842 19.188 86.686 20.424 86.686 21.096C86.686 23.424 87.046 25.164 87.766 26.316C86.326 27.396 84.826 27.936 83.266 27.936C81.706 27.936 80.59 27.492 79.918 26.604C79.246 25.692 78.91 24.348 78.91 22.572C78.91 20.772 79.666 15.696 81.178 7.344L79.27 3.492C81.982 1.74 84.454 0.864 86.686 0.864C88.534 0.864 89.458 1.992 89.458 4.248C89.458 4.92 88.954 7.872 87.946 13.104H96.01C96.106 12.504 96.454 10.584 97.054 7.344L95.146 3.492C97.858 1.74 100.33 0.864 102.562 0.864C104.41 0.864 105.334 1.992 105.334 4.248C105.334 4.992 104.866 7.764 103.93 12.564C103.018 17.34 102.562 20.184 102.562 21.096C102.562 23.424 102.922 25.164 103.642 26.316C102.202 27.396 100.702 27.936 99.142 27.936C97.582 27.936 96.466 27.492 95.794 26.604C95.122 25.692 94.786 24.276 94.786 22.356ZM129.282 6.192L128.994 14.76C128.994 17.712 129.234 20.196 129.714 22.212C130.218 24.228 131.142 25.62 132.486 26.388C130.83 27.42 129.15 27.936 127.446 27.936C124.446 27.936 122.598 25.512 121.902 20.664H114.558C114.102 22.224 113.874 23.424 113.874 24.264C113.874 25.08 113.97 25.74 114.162 26.244C112.386 27.372 110.802 27.936 109.41 27.936C107.274 27.936 106.206 26.64 106.206 24.048C106.206 22.752 106.602 21.12 107.394 19.152C108.21 17.184 109.278 14.928 110.598 12.384C111.942 9.84 112.794 8.16 113.154 7.344C112.89 6.048 112.59 4.776 112.254 3.528C113.502 2.664 114.702 2.016 115.854 1.584C117.03 1.128 118.29 0.899999 119.634 0.899999C121.002 0.899999 121.95 1.2 122.478 1.8C123.846 1.2 124.974 0.899999 125.862 0.899999C126.75 0.899999 127.41 1.044 127.842 1.332C128.274 1.62 128.586 2.04 128.778 2.592C129.114 3.552 129.282 4.752 129.282 6.192ZM122.046 7.02H120.894C118.734 11.196 117.126 14.484 116.07 16.884H121.65C121.65 14.268 121.782 10.98 122.046 7.02ZM186.045 27.9C184.869 27.9 183.909 27.54 183.165 26.82C182.445 26.076 182.085 25.14 182.085 24.012C182.085 22.86 182.529 21.828 183.417 20.916C184.305 20.004 185.337 19.548 186.513 19.548C187.689 19.548 188.637 19.92 189.357 20.664C190.101 21.384 190.473 22.32 190.473 23.472C190.473 24.6 190.029 25.62 189.141 26.532C188.253 27.444 187.221 27.9 186.045 27.9ZM219.093 26.316C217.653 27.396 216.237 27.936 214.845 27.936C213.453 27.936 212.349 27.576 211.533 26.856C210.717 26.136 210.309 25.056 210.309 23.616C210.309 23.208 210.321 22.896 210.345 22.68L209.985 22.572C207.609 26.124 204.417 27.9 200.409 27.9C196.545 27.9 194.613 25.86 194.613 21.78C194.613 20.412 194.805 18.6 195.189 16.344C195.573 14.064 195.897 12.144 196.161 10.584C196.449 9 196.641 7.92 196.737 7.344L194.829 3.492C196.341 2.628 197.649 1.98 198.753 1.548C199.881 1.116 201.009 0.899999 202.137 0.899999C203.265 0.899999 204.021 1.2 204.405 1.8C204.813 2.376 205.017 3.072 205.017 3.888C205.017 4.704 204.609 7.32 203.793 11.736C203.001 16.152 202.605 18.732 202.605 19.476C202.605 21.372 203.253 22.32 204.549 22.32C205.509 22.32 206.601 21.708 207.825 20.484C209.049 19.26 210.045 17.58 210.813 15.444C210.309 13.98 210.057 12.468 210.057 10.908C210.057 8.124 210.741 5.76 212.109 3.816C213.501 1.872 215.457 0.899999 217.977 0.899999C219.369 0.899999 220.485 1.128 221.325 1.584C221.109 2.88 220.689 5.232 220.065 8.64C218.697 15.864 218.013 20.016 218.013 21.096C218.013 23.424 218.373 25.164 219.093 26.316ZM225.183 27.72C224.031 27.72 223.095 27.396 222.375 26.748C221.679 26.076 221.331 25.14 221.331 23.94C221.331 22.74 221.787 21.648 222.699 20.664C223.635 19.68 224.919 19.188 226.551 19.188L233.463 9.972C230.727 9.9 228.555 9.396 226.947 8.46C225.339 7.5 224.535 6.048 224.535 4.104C224.535 3.192 224.655 2.172 224.895 1.044C226.599 1.74 228.963 2.328 231.987 2.808C235.035 3.264 237.267 3.492 238.683 3.492C239.667 1.788 241.011 0.935999 242.715 0.935999C243.843 0.935999 244.719 1.296 245.343 2.016C245.991 2.712 246.315 3.576 246.315 4.608C246.315 6.24 245.307 7.524 243.291 8.46L234.075 19.98L240.411 20.664L244.767 18.684C244.959 19.548 245.055 20.496 245.055 21.528C245.055 23.64 244.515 25.236 243.435 26.316C242.379 27.372 241.011 27.9 239.331 27.9C236.091 27.9 232.971 26.952 229.971 25.056C228.483 26.832 226.887 27.72 225.183 27.72Z" fill="#ECC441"/>
<path d="M133.548 15.984C133.548 11.424 134.82 7.776 137.364 5.04C139.908 2.28 143.388 0.899999 147.804 0.899999C149.22 0.899999 150.228 1.188 150.828 1.764C151.452 2.316 151.764 3.18 151.764 4.356C151.764 4.524 151.74 4.848 151.692 5.328C152.58 4.608 153.564 4.248 154.644 4.248C156.108 4.248 157.356 4.908 158.388 6.228C159.444 7.524 159.972 9.408 159.972 11.88C159.972 14.352 159.576 16.62 158.784 18.684C157.992 20.748 156.936 22.44 155.616 23.76C154.32 25.08 152.832 26.1 151.152 26.82C149.496 27.54 147.78 27.9 146.004 27.9C142.164 27.9 139.128 26.808 136.896 24.624C134.664 22.416 133.548 19.536 133.548 15.984ZM151.512 17.676C149.976 15.804 149.208 13.788 149.208 11.628C149.208 9.468 149.688 7.728 150.648 6.408C150.216 6.336 149.784 6.3 149.352 6.3C147.648 6.3 146.172 6.816 144.924 7.848C142.572 9.768 141.396 12.432 141.396 15.84C141.396 17.784 141.828 19.404 142.692 20.7C143.556 21.996 144.756 22.644 146.292 22.644C147.468 22.644 148.536 22.188 149.496 21.276C150.48 20.34 151.152 19.14 151.512 17.676ZM167.079 27.936C165.495 27.936 164.367 27.492 163.695 26.604C163.023 25.692 162.687 24.348 162.687 22.572C162.687 20.772 163.443 15.696 164.955 7.344L163.047 3.492C165.759 1.74 168.231 0.864 170.463 0.864C172.311 0.864 173.235 1.992 173.235 4.248C173.235 4.92 172.767 7.728 171.831 12.672C170.919 17.616 170.463 20.76 170.463 22.104H174.351C176.175 21.84 178.011 21.372 179.859 20.7C180.003 21.132 180.075 21.72 180.075 22.464C180.075 23.88 179.655 25.14 178.815 26.244C177.999 27.348 176.859 27.9 175.395 27.9C174.411 27.9 172.707 27.636 170.283 27.108C169.275 27.66 168.207 27.936 167.079 27.936Z" fill="#2B5FFA"/>
</svg>
